<?xml version="1.0" encoding="UTF-8" standalone="no"?>
<svg
   width="68"
   height="68"
   viewBox="0 0 68 68"
   fill="none"
   version="1.1"
   id="svg241"
   sodipodi:docname="A-A.svg"
   inkscape:version="1.2.1 (9c6d41e, 2022-07-14)"
   xmlns:inkscape="http://www.inkscape.org/namespaces/inkscape"
   xmlns:sodipodi="http://sodipodi.sourceforge.net/DTD/sodipodi-0.dtd"
   xmlns="http://www.w3.org/2000/svg"
   xmlns:svg="http://www.w3.org/2000/svg">
  <defs
     id="defs245" />
  <sodipodi:namedview
     id="namedview243"
     pagecolor="#ffffff"
     bordercolor="#000000"
     borderopacity="0.25"
     inkscape:showpageshadow="2"
     inkscape:pageopacity="0.0"
     inkscape:pagecheckerboard="0"
     inkscape:deskcolor="#d1d1d1"
     showgrid="false"
     inkscape:zoom="9.0588235"
     inkscape:cx="14.12987"
     inkscape:cy="34"
     inkscape:window-width="1470"
     inkscape:window-height="836"
     inkscape:window-x="0"
     inkscape:window-y="37"
     inkscape:window-maximized="1"
     inkscape:current-layer="svg241" />
  <path
     d="M34.0397 0.0148959C44.056 0.0148959 54.0583 0.0297919 64.0746 0C66.2508 0 67.9528 1.69814 67.9667 4.08149C67.9946 9.65257 68.0365 15.2386 67.9388 20.8096C67.9109 22.3141 68.0086 23.8782 67.4087 25.3529C66.6554 27.2149 65.3301 28.0938 63.5166 28.3172C62.0937 28.4959 60.6847 28.4364 59.2618 28.4364C41.4612 28.4364 23.6747 28.4364 5.87414 28.4215C4.89763 28.4215 3.92111 28.2874 2.95854 27.9895C1.13106 27.4234 -0.0407655 25.2486 0.00108522 23.5505C0.182439 16.9218 0.0568862 10.2931 0.112687 3.6644C0.126637 1.72793 1.88437 0 3.76765 0C13.8537 0.0148959 23.9397 0.0148959 34.0397 0.0148959ZM33.8584 16.8175C31.8914 16.8175 29.9383 16.8175 27.9713 16.8175C19.7128 16.8175 11.4542 16.8175 3.20964 16.8175C1.96807 16.8175 1.41006 17.3836 1.49376 18.7093C1.53561 19.5137 1.57746 20.333 1.60536 21.1373C1.66117 22.5823 1.74487 24.0272 1.85647 25.4721C1.91227 26.1424 2.26103 26.6191 2.86089 26.8574C3.23754 27.0064 3.62815 26.9915 4.01876 26.9915C23.9397 26.9915 43.8467 26.9915 63.7677 26.9915C63.9072 26.9915 64.0607 26.9915 64.2002 26.9915C65.1906 26.9617 65.916 26.2616 65.9718 25.189C66.0695 23.044 66.1671 20.8841 66.2369 18.7391C66.2787 17.2644 65.8323 16.8175 64.4373 16.8175C54.2397 16.8175 44.056 16.8175 33.8584 16.8175ZM60.5731 8.13319C61.7031 8.13319 62.847 8.14808 63.977 8.13319C64.6466 8.11829 65.0093 7.731 65.0093 7.01599C65.0232 6.10734 65.0232 5.21358 65.0093 4.30493C65.0093 3.56013 64.6605 3.12815 63.963 3.11325C61.717 3.08346 59.471 3.08346 57.225 3.11325C56.5136 3.12815 56.1369 3.58992 56.1369 4.34962C56.123 5.16889 56.1369 5.97327 56.1369 6.79255C56.1369 7.77568 56.4857 8.13319 57.4203 8.13319C58.4666 8.14808 59.5129 8.13319 60.5731 8.13319ZM33.9281 13.9128C31.989 13.9128 30.0499 13.9128 28.1108 13.9128C27.2459 13.9128 26.381 13.9128 25.5161 13.9128C25.0418 13.9128 24.693 14.1511 24.6651 14.6576C24.6372 15.1939 24.972 15.4918 25.4464 15.611C25.544 15.6407 25.6556 15.6258 25.7533 15.6258C31.1939 15.6258 36.6484 15.6258 42.089 15.6258C42.7726 15.6258 43.0934 15.3428 43.0934 14.7619C43.0934 14.1511 42.8144 13.9128 42.103 13.9128C39.3687 13.9128 36.6484 13.9128 33.9281 13.9128Z"
     fill="#E5E2E1"
     id="path201" />
  <path
     d="M17.9414 30.7005C17.8298 31.6092 17.5228 32.488 17.4112 33.3967C17.0206 36.644 17.6345 39.653 19.1969 42.4534C20.0199 43.9281 21.1918 45.0751 22.1822 46.4009C23.7447 48.4863 24.1632 50.9441 23.9121 53.5509C23.4099 58.8539 21.1639 63.3971 18.5133 67.7765C18.4854 67.8212 18.4296 67.8659 18.3041 68C18.4575 67.1807 18.7086 66.4955 18.8342 65.7805C19.5596 61.55 18.5412 57.8112 16.086 54.4596C15.5001 53.6701 14.8165 52.9551 14.2027 52.1805C12.989 50.6313 12.4589 48.7991 12.3752 46.8179C12.2218 43.4813 13.1704 40.3829 14.384 37.3739C15.249 35.2289 16.3092 33.1882 17.5089 31.2368C17.6345 31.058 17.7042 30.8048 17.9414 30.7005Z"
     fill="#8ACDD1"
     id="path203"
     style="fill:#50cebf;fill-opacity:1" />
  <path
     d="M35.7556 67.717C35.909 66.6743 36.202 65.6763 36.2996 64.6187C36.6065 61.4905 35.923 58.6454 34.4024 55.9939C33.7328 54.8171 32.9237 53.7744 32.0169 52.8062C30.5242 51.1974 29.8267 49.2163 29.7151 46.9819C29.5198 43.3175 30.6079 39.951 32.003 36.6888C32.8121 34.797 33.7607 32.9946 34.8209 31.2667C34.9325 31.0879 35.0581 30.924 35.2255 30.7751C35.1418 31.5646 34.8907 32.2945 34.7791 33.0542C34.1932 37.1654 35.1836 40.8001 37.5552 44.0474C38.3503 45.1348 39.3966 46.0136 40.0662 47.2202C40.7498 48.4566 41.1264 49.7823 41.238 51.2123C41.5449 54.9363 40.4568 58.3326 39.0618 61.6395C38.2108 63.6504 37.2204 65.5869 36.0625 67.4042C35.9788 67.5234 35.8811 67.6426 35.7974 67.7468L35.7556 67.717Z"
     fill="#8ACDD1"
     id="path205" />
  <path
     d="M53.04 67.6127C53.3609 66.3614 53.598 65.1697 53.6538 63.9483C53.7654 61.7437 53.3888 59.6731 52.5518 57.6771C51.7845 55.8449 50.6685 54.2659 49.3571 52.8508C47.8924 51.2569 47.167 49.3353 47.0275 47.1158C46.7903 43.6302 47.7808 40.4425 49.0502 37.3143C49.957 35.065 51.1009 32.9498 52.3565 30.9091C52.4123 30.8197 52.482 30.7452 52.6494 30.5069C52.4402 31.3708 52.2448 32.0263 52.1332 32.7115C51.3939 36.8972 52.3844 40.6361 54.7977 43.9728C55.2581 44.6133 55.7743 45.2241 56.3044 45.805C57.7692 47.4138 58.4388 49.38 58.5643 51.5846C58.7457 54.8766 57.8668 57.9303 56.681 60.9095C55.8301 63.0694 54.7698 65.1102 53.5841 67.0615C53.4585 67.2403 53.3888 67.4935 53.04 67.6127Z"
     fill="#8ACDD1"
     id="path207" />
  <path
     d="M17.9409 30.7006C17.9409 30.6857 17.9549 30.656 17.9688 30.6411C17.9688 30.6262 17.9967 30.6411 18.0107 30.6262C17.9828 30.656 17.9549 30.6857 17.9409 30.7006Z"
     fill="#8ACDD1"
     id="path209" />
  <path
     d="M35.7835 67.7467C35.7695 67.7765 35.7416 67.8063 35.7277 67.8361C35.6579 67.7765 35.7137 67.7467 35.7556 67.7169L35.7835 67.7467Z"
     fill="#8ACDD1"
     id="path211" />
  <path
     d="M33.8584 16.8176C44.056 16.8176 54.2536 16.8176 64.4513 16.8176C65.8463 16.8176 66.2927 17.2645 66.2509 18.7392C66.1951 20.8842 66.0974 23.0441 65.9858 25.1891C65.93 26.2616 65.2046 26.9617 64.2141 26.9915C64.0746 26.9915 63.9212 26.9915 63.7817 26.9915C43.8607 26.9915 23.9537 26.9915 4.03272 26.9915C3.64211 26.9915 3.2515 27.0064 2.87485 26.8575C2.26104 26.6191 1.91228 26.1425 1.85648 25.487C1.74488 24.0421 1.66118 22.5972 1.60537 21.1523C1.56352 20.3479 1.53562 19.5287 1.49377 18.7243C1.41007 17.3836 1.96808 16.8325 3.20965 16.8325C11.4682 16.8325 19.7268 16.8325 27.9714 16.8325C29.9383 16.8176 31.8914 16.8176 33.8584 16.8176ZM33.9142 21.9865C23.591 21.9865 13.2817 21.9865 2.95855 22.0014C2.66559 22.0014 2.10758 21.7631 2.12153 22.3142C2.13548 22.8505 2.67954 22.6121 2.98645 22.6121C23.577 22.627 44.1816 22.627 64.7721 22.6121C65.0651 22.6121 65.6231 22.8653 65.6091 22.2993C65.5952 21.763 65.0511 21.9865 64.7442 21.9865C54.4768 21.9865 44.1955 21.9865 33.9142 21.9865ZM33.9002 23.8187C44.0839 23.8187 54.2536 23.8187 64.4373 23.8038C64.7163 23.8038 65.2325 24.0421 65.2185 23.491C65.2046 23.059 64.7163 23.2675 64.4373 23.2675C44.0839 23.2526 23.7305 23.2526 3.37706 23.2526C3.20965 23.2526 3.04225 23.2526 2.87485 23.2526C2.69349 23.2526 2.54004 23.3122 2.55399 23.5506C2.56794 23.7442 2.70744 23.7889 2.8609 23.7889C3.04225 23.7889 3.23755 23.7889 3.41891 23.7889C13.5886 23.8187 23.7444 23.8187 33.9002 23.8187ZM33.8444 25.0253C43.9304 25.0253 54.0304 25.0253 64.1165 25.0104C64.4094 25.0104 64.9674 25.2487 64.9674 24.6976C64.9535 24.2358 64.4234 24.4592 64.1444 24.4592C44.0002 24.4443 23.856 24.4443 3.72581 24.4443C3.58631 24.4443 3.43286 24.4294 3.29336 24.4443C3.09805 24.4592 2.833 24.3847 2.81905 24.7124C2.8051 25.0551 3.07015 24.9955 3.26545 25.0104C3.43286 25.0253 3.60026 25.0104 3.75371 25.0104C13.7839 25.0253 23.8142 25.0253 33.8444 25.0253ZM33.9281 26.2169C43.9583 26.2169 53.9886 26.2169 64.0188 26.202C64.2978 26.202 64.8279 26.4255 64.814 25.919C64.8 25.4572 64.2839 25.6509 63.9909 25.6509C43.9165 25.636 23.8421 25.636 3.75371 25.6509C3.48866 25.6509 3.0004 25.4423 2.98645 25.8892C2.9725 26.4255 3.50261 26.1871 3.78161 26.1871C13.8258 26.2169 23.8839 26.2169 33.9281 26.2169Z"
     fill="#B3B2B1"
     id="path213" />
  <path
     d="M60.5732 8.13313C59.527 8.13313 58.4668 8.13313 57.4205 8.13313C56.4858 8.13313 56.1371 7.77563 56.1371 6.79249C56.1371 5.97322 56.1231 5.16884 56.1371 4.34956C56.151 3.58986 56.5137 3.12809 57.2252 3.11319C59.4712 3.0834 61.7172 3.0834 63.9632 3.11319C64.6607 3.12809 64.9955 3.56007 65.0094 4.30487C65.0234 5.21352 65.0234 6.10728 65.0094 7.01593C64.9955 7.71604 64.6467 8.11823 63.9771 8.13313C62.8332 8.14802 61.7032 8.13313 60.5732 8.13313Z"
     fill="#F49934"
     id="path215"
     style="fill:#edbb26;fill-opacity:1" />
  <path
     d="M33.9282 13.9128C36.6485 13.9128 39.3688 13.9128 42.103 13.9128C42.8145 13.9128 43.0935 14.166 43.0935 14.7618C43.0935 15.3428 42.7726 15.6109 42.0891 15.6258C36.6485 15.6258 31.1939 15.6258 25.7533 15.6258C25.6557 15.6258 25.5441 15.6407 25.4464 15.6109C24.9721 15.5066 24.6373 15.1938 24.6652 14.6575C24.6931 14.1362 25.0419 13.9128 25.5162 13.9128C26.3811 13.9128 27.246 13.9128 28.1109 13.9128C30.05 13.9128 31.9891 13.9128 33.9282 13.9128Z"
     fill="#B3B2B1"
     id="path217"
     style="fill:#1155cc;fill-opacity:1" />
  <path
     d="M6.04139 7.41824C5.83214 7.2097 6.01349 7.17991 6.16695 7.15012L6.1809 7.16501C6.12509 7.25439 6.08324 7.34376 6.04139 7.41824Z"
     fill="#8ACDD1"
     id="path219" />
  <path
     d="M33.9142 21.9864C44.1956 21.9864 54.463 21.9864 64.7443 22.0013C65.0512 22.0013 65.5953 21.7779 65.6092 22.3141C65.6232 22.8802 65.0651 22.627 64.7722 22.627C44.1816 22.6419 23.5771 22.6419 2.98651 22.627C2.6796 22.627 2.13554 22.8504 2.12159 22.329C2.10764 21.763 2.66565 22.0162 2.95861 22.0162C13.2818 21.9864 23.605 21.9864 33.9142 21.9864Z"
     fill="#666264"
     id="path221" />
  <path
     d="M33.9001 23.8186C23.7443 23.8186 13.5886 23.8186 3.43277 23.8186C3.25142 23.8186 3.05611 23.8186 2.87476 23.8186C2.72131 23.8186 2.58181 23.7739 2.56786 23.5803C2.5539 23.3419 2.69341 23.2823 2.88871 23.2823C3.05611 23.2823 3.22352 23.2823 3.39092 23.2823C23.7443 23.2823 44.0978 23.2823 64.4512 23.2972C64.7162 23.2972 65.2045 23.0887 65.2324 23.5207C65.2464 24.0569 64.7302 23.8335 64.4512 23.8335C54.2536 23.8335 44.0699 23.8186 33.9001 23.8186Z"
     fill="#666264"
     id="path223" />
  <path
     d="M33.8443 25.0252C23.814 25.0252 13.7838 25.0252 3.75355 25.0252C3.58615 25.0252 3.41875 25.0252 3.2653 25.0252C3.06999 25.0103 2.80494 25.0699 2.81889 24.7273C2.83284 24.3996 3.09789 24.4741 3.2932 24.4592C3.4327 24.4443 3.58615 24.4592 3.72565 24.4592C23.8698 24.4592 44.014 24.4592 64.1442 24.4741C64.4232 24.4741 64.9533 24.2357 64.9673 24.7124C64.9812 25.2636 64.4232 25.0252 64.1163 25.0252C54.0303 25.0252 43.9303 25.0252 33.8443 25.0252Z"
     fill="#666264"
     id="path225" />
  <path
     d="M33.928 26.2169C23.8838 26.2169 13.8257 26.2169 3.78149 26.202C3.50249 26.202 2.98633 26.4403 2.98633 25.9041C3.00028 25.4572 3.48854 25.6657 3.75359 25.6657C23.828 25.6508 43.9024 25.6508 63.9908 25.6657C64.2837 25.6657 64.7999 25.4572 64.8139 25.9339C64.8278 26.4403 64.2977 26.2169 64.0187 26.2169C53.9885 26.2169 43.9582 26.2169 33.928 26.2169Z"
     fill="#666264"
     id="path227" />
  <path
     d="M6.0415 7.43317C6.08335 7.34379 6.12521 7.25441 6.16706 7.16504C6.36236 7.38848 6.20891 7.40337 6.0415 7.43317Z"
     fill="#E5E2E1"
     id="path229" />
  <path
     d="M6.5437 3.72401C6.5158 3.67932 6.4879 3.63463 6.44604 3.58994C6.47395 3.57505 6.4879 3.57505 6.5158 3.56015C6.52975 3.61973 6.52975 3.66442 6.5437 3.72401Z"
     fill="#E5E2E1"
     id="path231" />
  <path
     d="M4.99522 4.31985C5.00917 4.34965 5.02312 4.37944 5.02312 4.42413C5.02312 4.43902 4.99522 4.45392 4.98127 4.45392C4.96732 4.40923 4.95337 4.37944 4.95337 4.34965C4.95337 4.33475 4.98127 4.31985 4.99522 4.31985Z"
     fill="#E5E2E1"
     id="path233" />
  <path
     d="M7.85533 6.56915C7.85533 6.59894 7.86928 6.62874 7.88323 6.67342C7.88323 6.68832 7.85533 6.70322 7.84138 6.70322C7.82743 6.67342 7.81348 6.64363 7.81348 6.59894C7.81348 6.59894 7.84138 6.58405 7.85533 6.56915Z"
     fill="#E5E2E1"
     id="path235" />
  <path
     d="M60.5731 7.38831C61.151 7.38831 61.6194 6.59469 61.6194 5.6157C61.6194 4.63671 61.151 3.84308 60.5731 3.84308C59.9953 3.84308 59.5269 4.63671 59.5269 5.6157C59.5269 6.59469 59.9953 7.38831 60.5731 7.38831Z"
     fill="#EF7D50"
     id="path237" />
  <path
     d="M6.33457 8.01409C6.27877 8.01409 6.23692 7.9694 6.23692 7.90982V7.38846C6.23692 7.37356 6.22297 7.35867 6.22297 7.35867H6.20902H6.19507L5.77656 7.64169C5.76261 7.64169 5.74866 7.65658 5.72076 7.65658C5.69286 7.65658 5.65101 7.64169 5.63706 7.6119C5.60916 7.55231 5.62311 7.49273 5.67891 7.46294L6.22297 7.09054L6.23692 6.64366C6.23692 6.62876 6.23692 6.61387 6.22297 6.61387H6.20902H6.19507L5.38596 7.07564L5.37201 6.1223C5.37201 6.10741 5.35806 6.09251 5.35806 6.09251H5.34411H5.33016L4.99535 6.28616L4.9535 7.01606C4.9535 7.07564 4.91165 7.12033 4.85585 7.12033C4.82795 7.12033 4.80005 7.10543 4.7861 7.09054C4.75819 7.06075 4.7582 7.03096 4.7582 7.00116L4.77215 6.4947C4.77215 6.47981 4.77215 6.46491 4.7582 6.46491H4.74425H4.73029L4.31179 6.71814C4.28389 6.73304 4.26994 6.73304 4.24204 6.73304C4.21414 6.73304 4.17228 6.71814 4.15833 6.68835C4.14438 6.65856 4.14438 6.62876 4.15833 6.59897C4.15833 6.56918 4.18623 6.55428 4.20019 6.53939L4.61869 6.28616C4.63264 6.28616 4.63264 6.27126 4.63264 6.25637C4.63264 6.24147 4.61869 6.22657 4.61869 6.22657L4.20019 5.98824C4.17228 5.95845 4.15833 5.94355 4.14438 5.91376C4.13043 5.88397 4.14438 5.85418 4.14438 5.83928C4.15833 5.80949 4.20018 5.7797 4.22809 5.7797C4.24204 5.7797 4.25599 5.7797 4.26994 5.79459L4.8419 6.10741L5.2046 5.89886C5.21855 5.89886 5.21855 5.88397 5.21855 5.86907C5.21855 5.85418 5.21855 5.83928 5.2046 5.83928L4.46524 5.33282L5.21855 4.84125C5.2325 4.84125 5.2325 4.82636 5.2325 4.81146C5.2325 4.79656 5.2325 4.78167 5.21855 4.78167L4.8977 4.57312L4.28389 4.90083C4.26994 4.90083 4.25599 4.91573 4.24204 4.91573C4.20018 4.91573 4.17228 4.90083 4.15833 4.85615C4.14438 4.82635 4.14438 4.79656 4.14438 4.78167C4.15833 4.75188 4.17228 4.73698 4.18623 4.72208L4.60474 4.48375C4.61869 4.48375 4.61869 4.46885 4.61869 4.45396C4.61869 4.43906 4.61869 4.42416 4.60474 4.42416L4.18623 4.17093C4.17228 4.14114 4.15833 4.11135 4.15833 4.08156C4.15833 4.05177 4.15833 4.02197 4.17228 4.00708C4.18623 3.97729 4.22809 3.96239 4.25599 3.96239C4.26994 3.96239 4.28389 3.96239 4.29784 3.97729L4.71634 4.23052H4.73029H4.74425C4.7582 4.21562 4.77215 4.21562 4.77215 4.20073L4.7582 3.69426C4.7582 3.66447 4.77215 3.63468 4.7861 3.61978C4.80005 3.58999 4.814 3.5751 4.8419 3.5751C4.8977 3.5751 4.93955 3.61978 4.93955 3.67937L4.96745 4.36458L5.31621 4.60292H5.33016H5.34411C5.35806 4.60292 5.35806 4.58802 5.35806 4.57312L5.39991 3.60489L6.18112 4.06666H6.19507H6.20902C6.22297 4.06666 6.22297 4.05177 6.22297 4.03687V3.63468L5.67891 3.23249C5.65101 3.21759 5.63706 3.1878 5.63706 3.17291C5.63706 3.14311 5.63706 3.11332 5.65101 3.09843C5.66496 3.06863 5.70681 3.05374 5.73471 3.05374C5.74866 3.05374 5.77656 3.05374 5.79051 3.06863L6.18112 3.32186H6.19507H6.20902C6.22297 3.32186 6.22297 3.30697 6.22297 3.29207V2.77071C6.23692 2.72603 6.27877 2.66644 6.33457 2.66644C6.39038 2.66644 6.43223 2.71113 6.43223 2.77071V3.29207C6.43223 3.30697 6.44618 3.32186 6.44618 3.32186H6.46013H6.47408L6.87863 3.05374C6.90653 3.03884 6.92048 3.03884 6.93443 3.03884C6.96234 3.03884 7.00419 3.05374 7.01814 3.08353C7.03209 3.11332 7.03209 3.14311 7.03209 3.17291C7.03209 3.2027 7.00419 3.21759 6.99024 3.23249L6.44618 3.60489L6.43223 4.05177C6.43223 4.06666 6.43223 4.08156 6.44618 4.08156H6.46013H6.47408L7.28319 3.61978L7.29714 4.57312C7.29714 4.58802 7.31109 4.60292 7.31109 4.60292H7.32504H7.33899L7.65985 4.40927L7.7017 3.69426C7.7017 3.63468 7.74355 3.58999 7.79935 3.58999C7.85515 3.58999 7.897 3.63468 7.897 3.69426V4.20073C7.897 4.21562 7.897 4.21562 7.91095 4.23052H7.9249H7.93885L8.35736 3.97729C8.37131 3.96239 8.38526 3.96239 8.39921 3.96239C8.44106 3.96239 8.46896 3.97729 8.48291 4.00708C8.51081 4.03687 8.51081 4.06666 8.51081 4.08156C8.51081 4.11135 8.48291 4.12625 8.46896 4.14114L8.05046 4.39437C8.0365 4.39437 8.0365 4.40927 8.0365 4.42416C8.0365 4.43906 8.05046 4.45396 8.05046 4.45396L8.46896 4.69229C8.49686 4.70719 8.51081 4.72208 8.51081 4.75188C8.52476 4.78167 8.51081 4.81146 8.51081 4.82635C8.48291 4.88594 8.45501 4.91573 8.41316 4.91573C8.39921 4.91573 8.38526 4.91573 8.37131 4.90083L7.79935 4.57312L7.43664 4.78167C7.42269 4.78167 7.42269 4.79656 7.42269 4.81146C7.42269 4.82636 7.42269 4.84125 7.43664 4.84125L8.20391 5.34771L7.45059 5.85418C7.43664 5.85418 7.43664 5.86907 7.43664 5.88397C7.43664 5.89886 7.43664 5.91376 7.45059 5.91376L7.77145 6.10741L8.37131 5.79459C8.38526 5.7797 8.39921 5.7797 8.41316 5.7797C8.45501 5.7797 8.48291 5.79459 8.49686 5.83928C8.51081 5.86907 8.51081 5.89886 8.49686 5.91376C8.51081 5.94355 8.48291 5.95845 8.46896 5.97334L8.05046 6.21168C8.0365 6.21168 8.0365 6.22657 8.0365 6.24147C8.0365 6.25637 8.0365 6.27126 8.05046 6.27126L8.46896 6.52449C8.48291 6.55429 8.49686 6.56918 8.51081 6.59897C8.51081 6.62876 8.51081 6.65856 8.49686 6.67345C8.48291 6.71814 8.45501 6.73304 8.41316 6.73304C8.39921 6.73304 8.38526 6.73304 8.37131 6.71814L7.9528 6.46491H7.93885H7.9249C7.91095 6.46491 7.91095 6.47981 7.91095 6.4947V7.00116C7.91095 7.03096 7.897 7.06075 7.88305 7.07564C7.8691 7.09054 7.8412 7.10544 7.8133 7.10544C7.7575 7.10544 7.71565 7.06075 7.71565 7.00116L7.68775 6.33085L7.33899 6.09251H7.32504H7.31109C7.29714 6.09251 7.29714 6.10741 7.29714 6.1223L7.25529 7.07564L6.48803 6.62876H6.47408H6.46013C6.44618 6.62876 6.44618 6.64366 6.44618 6.65856V7.06075L7.00419 7.46294C7.04604 7.49273 7.05999 7.55231 7.03209 7.6119C7.00419 7.62679 6.97629 7.65658 6.93443 7.65658C6.92048 7.65658 6.89258 7.65659 6.87863 7.64169L6.48803 7.35867H6.47408H6.46013C6.44618 7.35867 6.44618 7.37356 6.44618 7.38846V7.90982C6.43223 7.9694 6.39038 8.01409 6.33457 8.01409ZM6.46013 5.55626H6.44618C6.43223 5.55626 6.43223 5.57115 6.43223 5.58605V6.33085C6.43223 6.34574 6.44618 6.36064 6.44618 6.36064L7.01814 6.70324H7.03209H7.04604C7.05999 6.70324 7.05999 6.68835 7.05999 6.67345L7.08789 5.95845C7.08789 5.94355 7.08789 5.92866 7.07394 5.92866L6.48803 5.55626C6.47408 5.55626 6.47408 5.55626 6.46013 5.55626ZM6.19507 5.55626H6.18112L5.58126 5.92866C5.56731 5.92866 5.56731 5.94355 5.56731 5.95845L5.58126 6.65856C5.58126 6.67345 5.58126 6.68835 5.59521 6.68835H5.60916H5.62311L6.20902 6.34574C6.22297 6.34574 6.22297 6.33085 6.22297 6.31595V5.58605C6.22297 5.57115 6.22297 5.55626 6.20902 5.55626C6.20902 5.55626 6.20902 5.55626 6.19507 5.55626ZM7.19949 4.94552H7.18554L6.58568 5.31792C6.57173 5.31792 6.57173 5.33282 6.57173 5.34771C6.57173 5.36261 6.57173 5.37751 6.58568 5.37751L7.18554 5.7499H7.19949H7.21344L7.77145 5.3924C7.7854 5.3924 7.7854 5.37751 7.7854 5.36261C7.7854 5.34771 7.7854 5.33282 7.77145 5.33282L7.21344 4.94552H7.19949ZM5.46966 4.93063H5.45571L4.8977 5.28813C4.88375 5.28813 4.88375 5.30303 4.88375 5.31792C4.88375 5.33282 4.88375 5.34771 4.8977 5.34771L5.46966 5.72011H5.48361H5.49756L6.09742 5.34771C6.09742 5.37751 6.09742 5.36261 6.09742 5.34771C6.09742 5.33282 6.09742 5.31792 6.08347 5.31792L5.48361 4.94552C5.46966 4.93063 5.46966 4.93063 5.46966 4.93063ZM5.62311 3.97729H5.60916C5.59521 3.97729 5.59521 3.99218 5.59521 4.00708L5.56731 4.73698C5.56731 4.75188 5.56731 4.76677 5.58126 4.76677L6.18112 5.13917H6.19507H6.20902C6.22297 5.13917 6.22297 5.12427 6.22297 5.10938V4.36458C6.22297 4.34968 6.20902 4.33479 6.20902 4.33479L5.63706 3.99218C5.63706 3.97729 5.62311 3.97729 5.62311 3.97729ZM7.05999 3.99218H7.04604L6.44618 4.33479C6.43223 4.33479 6.43223 4.34968 6.43223 4.36458V5.09448C6.43223 5.10938 6.43223 5.12427 6.44618 5.12427H6.46013H6.47408L7.07394 4.75188C7.08789 4.75188 7.08789 4.73698 7.08789 4.72208V4.02197C7.08789 4.00708 7.08789 3.99218 7.07394 3.99218C7.05999 3.99218 7.05999 3.99218 7.05999 3.99218Z"
     fill="#89CCD0"
     id="path239"
     style="fill:#50cebf;fill-opacity:1" />
  <path
     style="fill:#50cebf;fill-opacity:1;stroke-width:0.11039"
     d="m 35.876957,67.36526 c 1.88e-4,-0.04554 0.108278,-0.604383 0.240209,-1.241883 0.319913,-1.545847 0.345077,-4.244786 0.05249,-5.629871 -0.569609,-2.696489 -1.728576,-4.960619 -3.729421,-7.285714 -1.848154,-2.147657 -2.406924,-3.413944 -2.629018,-5.957888 -0.25461,-2.916399 0.442981,-6.263618 2.14083,-10.272242 0.884848,-2.08913 2.983888,-6.052548 3.128737,-5.907699 0.02224,0.02224 -0.07,0.553996 -0.204996,1.181669 -0.298093,1.386042 -0.358133,4.176397 -0.118379,5.501615 0.338228,1.869517 1.209591,4.009225 2.311089,5.67508 0.277388,0.419509 0.9966,1.338503 1.598249,2.042208 1.673533,1.957412 2.290054,3.404923 2.505209,5.881908 0.09904,1.140148 0.0029,3.019844 -0.212102,4.148306 -0.61283,3.216116 -2.33421,7.489638 -4.445553,11.036589 -0.510984,0.858428 -0.638134,1.023597 -0.637344,0.827922 z"
     id="path1979" />
  <path
     style="fill:#50cebf;fill-opacity:1;stroke-width:0.11039"
     d="m 53.325733,66.617123 c 0.284962,-1.19607 0.458802,-3.159673 0.375991,-4.246993 -0.268381,-3.523883 -1.495723,-6.308777 -4.135272,-9.383117 -1.180569,-1.375035 -1.785106,-2.471704 -2.177051,-3.949317 -0.249531,-0.940719 -0.285382,-1.298571 -0.290021,-2.894839 -0.0085,-2.923238 0.489996,-5.073295 2.071512,-8.934681 0.79851,-1.949621 3.076126,-6.303149 3.221523,-6.157752 0.02275,0.02275 -0.06115,0.484585 -0.186432,1.02631 -0.33518,1.449311 -0.410709,4.082554 -0.160097,5.581623 0.458571,2.743005 1.686931,5.2383 3.782159,7.683094 1.394759,1.627458 1.946102,2.593058 2.365904,4.143551 0.286058,1.056529 0.389064,3.547981 0.207127,5.009917 -0.30408,2.443414 -1.35079,5.678447 -2.830224,8.747279 -0.866599,1.797613 -2.217277,4.205854 -2.358881,4.205854 -0.04631,0 0.0049,-0.373918 0.113762,-0.830929 z"
     id="path1981" />
</svg>
