<?xml version="1.0" encoding="UTF-8" standalone="no"?>
<svg
   width="68"
   height="68"
   viewBox="0 0 68 68"
   fill="none"
   version="1.1"
   id="svg3409"
   sodipodi:docname="albanil.svg"
   inkscape:version="1.2.1 (9c6d41e, 2022-07-14)"
   xmlns:inkscape="http://www.inkscape.org/namespaces/inkscape"
   xmlns:sodipodi="http://sodipodi.sourceforge.net/DTD/sodipodi-0.dtd"
   xmlns="http://www.w3.org/2000/svg"
   xmlns:svg="http://www.w3.org/2000/svg">
  <defs
     id="defs3413" />
  <sodipodi:namedview
     id="namedview3411"
     pagecolor="#ffffff"
     bordercolor="#000000"
     borderopacity="0.25"
     inkscape:showpageshadow="2"
     inkscape:pageopacity="0.0"
     inkscape:pagecheckerboard="0"
     inkscape:deskcolor="#d1d1d1"
     showgrid="false"
     inkscape:zoom="3.4705882"
     inkscape:cx="-17.864407"
     inkscape:cy="34"
     inkscape:window-width="1470"
     inkscape:window-height="836"
     inkscape:window-x="0"
     inkscape:window-y="37"
     inkscape:window-maximized="1"
     inkscape:current-layer="svg3409" />
  <path
     d="M1.13989 0.842529H65.7199V35.1825H1.13989V0.842529Z"
     fill="#EF7D50"
     id="path3377" />
  <path
     d="M66.86 0H1.14C0.519999 0 0 0.369565 0 0.842609V36.0104C0 36.4687 0.499999 36.853 1.14 36.853H66.86C67.48 36.853 68 36.4835 68 36.0104V0.842609C68 0.369565 67.48 0 66.86 0ZM65.72 15.0783H35.12V6.69652H65.72V15.0783ZM53.26 1.67043H65.72V5.02609H53.26V1.67043V1.67043ZM17 1.67043H51V5.02609H17V1.67043ZM2.28 1.67043H14.74V5.02609H2.28V1.67043ZM2.28 6.69652H32.88V15.0783H2.28V6.69652ZM2.28 16.7487H14.74V25.1304H2.28V16.7487ZM2.28 26.8009H32.88V35.1826H2.28V26.8009ZM17 25.1304V16.7487H51V25.1304H17ZM65.72 35.1678H35.12V26.7861H65.72V35.1678ZM65.72 25.1304H53.26V16.7487H65.72V25.1304Z"
     fill="#DDDADA"
     id="path3379" />
  <path
     d="M53.26 1.67044H65.72V5.02609H53.26V1.67044V1.67044Z"
     fill="#F4982D"
     id="path3381" />
  <path
     d="M53.26 16.7487H65.72V25.1304H53.26V16.7487V16.7487Z"
     fill="#F4982D"
     id="path3383" />
  <path
     d="M13.6001 6.69659H32.8601V15.0783H13.6001V6.69659Z"
     fill="#F4982D"
     id="path3385" />
  <path
     d="M35.1401 26.8009H65.7401V35.2861H35.1401V26.8009V26.8009Z"
     fill="#F1872D"
     id="path3387" />
  <path
     d="M34.6602 26.8009H65.7402V35.1826H34.6602V26.8009Z"
     fill="#F4982D"
     id="path3389" />
  <path
     d="M15.88 0V11.693C15.88 15.8765 20.46 19.2617 26.12 19.2617H36.26C42.52 19.2617 47.6 23.0165 47.6 27.6435C47.6 32.2704 42.52 36.0252 36.26 36.0252L36.4 36.7643L1.14 36.853C0.519999 36.853 0 36.4835 0 36.0252V0.842609C0 0.369565 0.519999 0 1.14 0H15.88Z"
     fill="#87CCD1"
     id="path3391"
     style="fill:#50cebf;fill-opacity:1" />
  <path
     d="M27.48 30.1566H22.66C22.04 30.1566 21.52 29.787 21.52 29.314C21.52 28.8557 22.02 28.4714 22.66 28.4714H27.48C28.1 28.4714 28.62 28.8409 28.62 29.314C28.62 29.7722 28.12 30.1566 27.48 30.1566Z"
     fill="#00ACB5"
     id="path3393" />
  <path
     d="M17.0001 30.1566H14.7401C14.1201 30.1566 13.6001 29.787 13.6001 29.314C13.6001 28.8557 14.1001 28.4714 14.7401 28.4714H17.0001C17.6201 28.4714 18.1401 28.8409 18.1401 29.314C18.1401 29.7722 17.6201 30.1566 17.0001 30.1566Z"
     fill="#00ACB5"
     id="path3395" />
  <path
     d="M29.04 25.9583H18.14C17.52 25.9583 17 25.5888 17 25.1157C17 24.6427 17.5 24.2731 18.14 24.2731H29.04C29.66 24.2731 30.18 24.6427 30.18 25.1157C30.18 25.5888 29.66 25.9583 29.04 25.9583Z"
     fill="#00ACB5"
     id="path3397" />
  <path
     d="M12.4801 25.9583H10.2001C9.58006 25.9583 9.06006 25.5888 9.06006 25.1157C9.06006 24.6427 9.56006 24.2731 10.2001 24.2731H12.4601C13.0801 24.2731 13.6001 24.6427 13.6001 25.1157C13.6001 25.5888 13.1001 25.9583 12.4801 25.9583Z"
     fill="#00ACB5"
     id="path3399" />
  <path
     d="M30.3801 46.5652H37.6401V51.9313H30.3801V46.5652Z"
     fill="#B5B5B5"
     id="path3401" />
  <path
     d="M28.56 51.9165L27.34 62.6487C27.04 65.3687 29.76 67.7487 33.44 67.9704C33.64 68 33.82 68 34 68C37.68 68 40.68 65.7974 40.68 63.0626C40.68 62.9296 40.68 62.7965 40.66 62.6487L39.44 51.9165H28.56Z"
     fill="#666264"
     id="path3403" />
  <path
     d="M34.0001 18.4191C31.8401 18.4191 29.9201 19.4391 29.2201 20.9617L20.9401 39.3069C20.0401 41.2878 20.7401 43.4608 22.7401 44.9391C24.1401 45.9739 26.0401 46.5504 28.0001 46.5504H39.9601C41.9401 46.5504 43.8401 45.9739 45.2201 44.9391C47.2201 43.4608 47.9201 41.2878 47.0201 39.3069L38.7401 20.9617C38.0801 19.4539 36.1601 18.4191 34.0001 18.4191Z"
     fill="#CECCCB"
     id="path3405" />
  <path
     d="M47.4202 41.0513C47.4202 44.0965 44.0802 46.5652 39.9602 46.5652H37.4002C41.5202 46.5652 44.8402 44.0965 44.8602 41.0661C44.8602 40.4747 44.7402 39.8834 44.4802 39.3217L36.2002 20.9765C35.6602 19.7791 34.3402 18.8774 32.7002 18.5521C33.1202 18.4634 33.5402 18.4339 33.9802 18.4339C36.1402 18.4339 38.0602 19.4539 38.7602 20.9765L47.0402 39.3217C47.3002 39.8687 47.4202 40.46 47.4202 41.0513Z"
     fill="#DDDADA"
     id="path3407" />
</svg>
