<?xml version="1.0" encoding="UTF-8" standalone="no"?>
<svg
   width="62"
   height="82"
   viewBox="0 0 62 82"
   fill="none"
   version="1.1"
   id="svg6263"
   sodipodi:docname="cerrajero.svg"
   inkscape:version="1.2.1 (9c6d41e, 2022-07-14)"
   xmlns:inkscape="http://www.inkscape.org/namespaces/inkscape"
   xmlns:sodipodi="http://sodipodi.sourceforge.net/DTD/sodipodi-0.dtd"
   xmlns="http://www.w3.org/2000/svg"
   xmlns:svg="http://www.w3.org/2000/svg">
  <defs
     id="defs6267" />
  <sodipodi:namedview
     id="namedview6265"
     pagecolor="#ffffff"
     bordercolor="#000000"
     borderopacity="0.25"
     inkscape:showpageshadow="2"
     inkscape:pageopacity="0.0"
     inkscape:pagecheckerboard="0"
     inkscape:deskcolor="#d1d1d1"
     showgrid="false"
     inkscape:zoom="2.8780488"
     inkscape:cx="-31.271186"
     inkscape:cy="41"
     inkscape:window-width="1470"
     inkscape:window-height="836"
     inkscape:window-x="0"
     inkscape:window-y="37"
     inkscape:window-maximized="1"
     inkscape:current-layer="svg6263" />
  <path
     d="M30.7039 0.0361573C28.3549 -0.137843 25.9363 0.314557 23.6917 1.42816L25.1707 4.43836C27.5719 3.27256 30.147 3.08116 32.5134 3.74236C35.3148 4.50796 37.7683 6.40456 39.1429 9.20596C39.9955 10.9286 40.3087 12.7382 40.2043 14.5304C41.4397 13.9388 42.2227 13.3994 43.5799 13.556C43.5451 11.6072 43.0753 9.62356 42.1531 7.74436C39.9085 3.11596 35.4541 0.331957 30.7039 0.0361573Z"
     fill="#CECCCB"
     id="path6237" />
  <path
     d="M53.5847 51.6793L43.4927 31.1647L36.0803 34.8013L42.8663 48.5473L46.8335 49.6087L45.6677 53.1931L54.7505 71.6545C55.1507 72.4549 56.1077 72.7855 56.9081 72.4027L61.0145 70.3843C61.8149 69.9841 62.1455 69.0271 61.7627 68.2267L56.3861 57.3169C53.5325 57.2299 51.9143 53.9239 53.5847 51.6793Z"
     fill="#87CCD1"
     id="path6239"
     style="fill:#50cebf;fill-opacity:1" />
  <path
     d="M41.4222 13.8865L23.9874 22.4647C25.8666 23.7349 28.1112 24.3439 30.3906 24.2221L39.9606 19.5241C40.935 19.0543 42.1008 19.4545 42.5532 20.4115L43.4232 22.1689C43.893 23.1259 43.4928 24.2917 42.5358 24.7615L31.1562 30.3469C30.1992 30.8167 29.0508 30.4165 28.5636 29.4595C28.407 29.1463 27.6762 27.7195 27.5892 27.4237C25.3446 27.0583 23.187 26.1535 21.36 24.7615C20.8902 25.8055 20.8902 27.0235 21.4296 28.1023L27.4326 40.2649C28.3896 42.2137 30.7386 42.9967 32.6874 42.0397L50.8878 33.0787C52.8366 32.1217 53.6196 29.7727 52.6626 27.8413L46.6596 15.6787C45.72 13.7821 43.4058 12.9121 41.4222 13.8865Z"
     fill="#87CCD1"
     id="path6241"
     style="fill:#50cebf;fill-opacity:1" />
  <path
     d="M45.699 35.6216L38.2837 39.2714L41.1267 45.0476L48.5421 41.3978L45.699 35.6216Z"
     fill="#87CCD1"
     id="path6243" />
  <path
     d="M42.1529 19.8722C40.8131 22.604 38.7599 24.6398 36.3935 25.91C32.1305 28.1894 26.8235 28.1372 22.6301 25.5968H22.6475C23.9873 25.4402 25.1705 24.6224 25.7795 23.4392C29.3465 24.9182 32.9135 24.2396 35.5409 22.4996C36.3413 21.9776 37.0721 21.3338 37.6637 20.6378C39.3689 19.8026 40.8827 18.602 42.1529 19.8722Z"
     fill="#CECCCB"
     id="path6245" />
  <path
     d="M18.2453 43.9712L11.5115 81.503L9.28433 78.3884L7.05713 75.2738L12.8687 43.0142L18.2453 43.9712Z"
     fill="#F4992E"
     id="path6247" />
  <path
     d="M22.5257 63.9638L19.5503 67.4786L21.1163 71.8112L18.1583 75.326L17.8103 77.2052L14.6609 79.3628L20.9075 44.4584L23.6045 44.9456L22.3691 51.8012L23.9351 56.1338L20.9771 59.6486L22.5257 63.9638Z"
     fill="#EF7D50"
     id="path6249" />
  <path
     d="M20.9075 44.4584L14.6609 79.3628L11.5115 81.503L18.2453 43.9712L20.9075 44.4584Z"
     fill="#F4992E"
     id="path6251" />
  <path
     d="M18.2454 43.9712L11.5116 81.503L9.28442 78.3884L15.5484 43.5014L18.2454 43.9712Z"
     fill="#EF7D50"
     id="path6253" />
  <path
     d="M11.7338 40.3309L10.9133 44.9038L24.6148 47.3621L25.4352 42.7892L11.7338 40.3309Z"
     fill="#F4992E"
     id="path6255" />
  <path
     d="M36.3935 25.91C36.2369 24.7268 35.9411 23.5784 35.5409 22.4996C33.6791 17.558 29.3291 13.6778 23.7611 12.686C22.2821 12.4076 20.8379 12.3728 19.4111 12.512C19.1849 14.339 19.4285 16.2182 20.2115 17.993C20.9945 17.5754 21.9341 17.384 22.8737 17.5406C25.0835 17.9408 26.5625 20.0462 26.1623 22.2734C25.7795 24.431 23.6915 25.9622 21.4295 25.562C19.3241 25.1792 17.9147 23.2478 18.1061 21.1772C16.5401 18.6716 15.8615 15.9572 15.9659 13.2776C10.8329 15.0524 6.79614 19.472 5.75214 25.1792C4.69074 31.13 7.17894 36.9242 11.7029 40.2998L25.4141 42.7532C30.8429 41.135 35.1755 36.5936 36.2543 30.6428C36.5675 29.0594 36.5849 27.4586 36.3935 25.91ZM13.9823 27.8066C13.7909 28.868 12.7817 29.564 11.7377 29.3726C10.6763 29.1812 9.98034 28.172 10.1717 27.128C10.3631 26.0666 11.3723 25.3706 12.4163 25.562C13.4777 25.7534 14.1737 26.7452 13.9823 27.8066Z"
     fill="#F4992E"
     id="path6257" />
  <path
     d="M20.1941 17.9582C19.4285 16.2008 19.2023 14.339 19.4111 12.5294C19.8287 9.15377 21.8819 6.03917 25.1531 4.42097L23.6741 1.41077C18.9761 3.72497 16.1747 8.38817 15.9833 13.295C15.8789 15.9398 16.5401 18.6194 18.0539 21.0728C19.3241 23.0564 20.9771 24.605 22.6301 25.6142H22.6475C23.9873 25.4576 25.1705 24.6398 25.7795 23.4566C23.2391 22.3778 21.2033 20.255 20.1941 17.9582Z"
     fill="#CECCCB"
     id="path6259" />
  <path
     d="M4.81256 23.3173C4.58636 24.6223 3.31616 25.5271 1.99376 25.2661C0.688763 25.0399 -0.216038 23.7697 0.0449625 22.4473C0.271162 21.1423 1.54136 20.2375 2.86376 20.4985C4.18616 20.7421 5.05616 21.9775 4.81256 23.3173Z"
     fill="#FFD200"
     id="path6261" />
</svg>
