<svg width="68" height="68" viewBox="0 0 68 68" fill="none" xmlns="http://www.w3.org/2000/svg">
<path d="M55.0838 57.4051H15.6411V63.5224H55.0838V57.4051Z" fill="#50494E"/>
<path d="M64.7119 68H5.97266L12.0205 62.6236H58.6842L64.7119 68Z" fill="#B5B5B5"/>
<path d="M46.7098 57.4051H15.6411V63.5224H46.7098V57.4051Z" fill="#50494E"/>
<path d="M56.3581 68H5.97266L12.0205 62.6236H50.3103L56.3581 68Z" fill="#CECCCB"/>
<path d="M62.4264 51.9814V57.4523C62.4264 58.1303 61.6982 58.6978 60.8285 58.6978H9.81595C8.94619 58.6978 8.21802 58.1303 8.21802 57.4523V51.9814H62.4264Z" fill="#828181"/>
<path d="M53.3238 51.9814V57.4523C53.3238 58.1303 52.5956 58.6978 51.7259 58.6978H9.83573C8.96597 58.6978 8.23779 58.1303 8.23779 57.4523V51.9814H53.3238Z" fill="#666265"/>
<path d="M32.0654 52.486C32.0654 53.905 33.5218 55.0402 35.3422 55.0402C37.1626 55.0402 38.619 53.8892 38.619 52.486H32.0654Z" fill="#87CCD1"/>
<path d="M48.3887 52.486C48.3887 53.905 49.8652 55.0402 51.6655 55.0402C53.4859 55.0402 54.9422 53.8892 54.9422 52.486H48.3887Z" fill="#87CCD1"/>
<path d="M15.7422 52.486C15.7422 53.905 17.2188 55.0402 19.019 55.0402C20.8394 55.0402 22.2957 53.8892 22.2957 52.486H15.7422Z" fill="#87CCD1"/>
<path d="M64.0445 52.4859H6.68066C6.68066 49.3642 9.2495 46.8258 12.4049 46.8258H58.3405C61.4756 46.8258 64.0445 49.3642 64.0445 52.4859Z" fill="#B5B5B5"/>
<path d="M54.9625 52.4859H6.68066C6.68066 49.3642 9.2495 46.8258 12.4049 46.8258H49.2585C52.4139 46.8258 54.9625 49.3642 54.9625 52.4859Z" fill="#CECCCB"/>
<path d="M56.7425 43.4677C61.3947 37.4765 56.1356 30.0663 56.1356 30.0663C56.1356 30.0663 56.0143 33.7872 51.1598 36.7354C46.3053 39.6995 43.6556 43.4361 43.6556 43.4361C43.6556 43.4361 42.6442 40.9608 35.4232 35.1273C28.2021 29.2938 27.9796 24.0436 27.9796 24.0436C22.1745 32.5732 26.6851 43.4361 26.6851 43.4361C13.1128 38.2175 11.8992 29.01 11.8992 29.01C6.84242 35.9787 10.4024 43.1681 10.5237 43.4361C10.1799 43.2469 -3.04859 35.7106 0.652956 23.8702C4.37473 11.872 23.9342 5.94389 33.1173 0C33.1173 0 36.1514 5.3763 41.2283 10.2954C46.2851 15.2145 50.108 19.5975 50.5732 25.431C50.5732 25.431 55.2254 18.9353 52.4543 11.9193C52.4543 11.9193 67.5639 18.5727 67.9887 27.9536C68.4134 37.3819 56.7425 43.4677 56.7425 43.4677Z" fill="#ED6A36"/>
<path d="M56.7424 43.4677C61.3947 37.4765 56.1356 30.0663 56.1356 30.0663C56.1356 30.0663 56.0143 33.7872 51.1598 36.7355C46.3053 39.6996 43.6556 43.4362 43.6556 43.4362C43.6556 43.4362 42.6442 40.9609 35.4232 35.1273C28.2021 29.2938 27.9796 24.0436 27.9796 24.0436C22.1745 32.5732 26.6851 43.4362 26.6851 43.4362C13.1128 38.2175 11.8992 29.01 11.8992 29.01C6.84241 35.9787 10.4024 43.1681 10.5237 43.4362C10.281 43.1524 2.55428 34.544 5.30516 26.2351C8.27853 17.2799 27.5751 10.8788 27.5751 10.8788C27.5751 10.8788 28.3437 16.3024 36.9402 21.726C43.5747 25.8883 45.921 33.1881 44.2826 36.7197C44.2826 36.7197 57.3088 29.9087 56.9245 21.048C56.9447 21.0796 70.1934 31.6587 56.7424 43.4677Z" fill="#F4992E"/>
</svg>
