<?xml version="1.0" encoding="UTF-8" standalone="no"?>
<svg
   width="68"
   height="68"
   viewBox="0 0 68 68"
   fill="none"
   version="1.1"
   id="svg7663"
   sodipodi:docname="plomero.svg"
   inkscape:version="1.2.1 (9c6d41e, 2022-07-14)"
   xmlns:inkscape="http://www.inkscape.org/namespaces/inkscape"
   xmlns:sodipodi="http://sodipodi.sourceforge.net/DTD/sodipodi-0.dtd"
   xmlns="http://www.w3.org/2000/svg"
   xmlns:svg="http://www.w3.org/2000/svg">
  <defs
     id="defs7667" />
  <sodipodi:namedview
     id="namedview7665"
     pagecolor="#ffffff"
     bordercolor="#000000"
     borderopacity="0.25"
     inkscape:showpageshadow="2"
     inkscape:pageopacity="0.0"
     inkscape:pagecheckerboard="0"
     inkscape:deskcolor="#d1d1d1"
     showgrid="false"
     inkscape:zoom="3.4705882"
     inkscape:cx="-17.864407"
     inkscape:cy="34"
     inkscape:window-width="1470"
     inkscape:window-height="836"
     inkscape:window-x="0"
     inkscape:window-y="37"
     inkscape:window-maximized="1"
     inkscape:current-layer="svg7663" />
  <path
     d="M40.1264 18.586H28.4032C27.8149 18.586 27.3589 19.0614 27.3589 19.6408C27.3589 20.2351 27.8296 20.6957 28.4032 20.6957H32.9336V29.2087C32.9336 29.8029 33.4043 30.2635 33.978 30.2635C34.5663 30.2635 35.0223 29.7881 35.0223 29.2087V20.6957H40.0969C40.6853 20.6957 41.1413 20.2202 41.1413 19.6408C41.1707 19.0465 40.7 18.586 40.1264 18.586Z"
     fill="#666265"
     id="path7639" />
  <path
     d="M39.8466 15.7483C37.7285 15.7483 36.0076 17.4717 36.0076 19.6259C36.0076 21.7802 37.7138 23.5036 39.8466 23.5036C41.9647 23.5036 43.6857 21.7802 43.6857 19.6259C43.6857 17.4717 41.95 15.7483 39.8466 15.7483Z"
     fill="#ED6A36"
     id="path7641" />
  <path
     d="M28.1384 15.7483C26.0203 15.7483 24.2993 17.4717 24.2993 19.6259C24.2993 21.7802 26.0056 23.5036 28.1384 23.5036C30.2565 23.5036 31.9774 21.7802 31.9774 19.6259C31.9774 17.4717 30.2565 15.7483 28.1384 15.7483Z"
     fill="#ED6A36"
     id="path7643" />
  <path
     d="M64.4404 0H56.0121C55.4237 0 54.9677 0.475421 54.9677 1.05484V24.9893C54.9677 26.7424 53.5704 28.1538 51.8347 28.1538H16.077C8.59004 28.1538 2.50049 34.3046 2.50049 41.8667V66.648C2.50049 67.2423 2.97118 67.7029 3.54483 67.7029H11.9731C12.5615 67.7029 13.0175 67.2274 13.0175 66.648V41.8667C13.0175 40.1136 14.4148 38.7022 16.1505 38.7022H51.8788C59.3657 38.7022 65.4553 32.5515 65.4553 24.9893V1.05484C65.4847 0.460564 65.014 0 64.4404 0Z"
     fill="#FCC637"
     id="path7645" />
  <path
     d="M64.4404 0H56.0121C55.4237 0 54.9677 0.475421 54.9677 1.05484V24.9893C54.9677 26.7424 53.5704 28.1538 51.8347 28.1538H16.077C8.59004 28.1538 2.50049 34.3046 2.50049 41.8667V66.648C2.50049 67.2423 2.97118 67.7029 3.54483 67.7029H11.9731C12.5615 67.7029 13.0175 67.2274 13.0175 66.648V41.8667C13.0175 40.1136 14.4148 38.7022 16.1505 38.7022H51.8788C59.3657 38.7022 65.4553 32.5515 65.4553 24.9893V1.05484C65.4847 0.460564 65.014 0 64.4404 0Z"
     fill="#CECCCB"
     id="path7647" />
  <path
     d="M29.5356 25.5388H26.1967C25.6083 25.5388 25.1523 26.0143 25.1523 26.5937V40.1135C25.1523 40.7077 25.623 41.1683 26.1967 41.1683H29.5356C30.124 41.1683 30.58 40.6929 30.58 40.1135V26.5937C30.5653 25.9994 30.1093 25.5388 29.5356 25.5388Z"
     fill="#F4992E"
     id="path7649" />
  <path
     d="M41.7886 25.5388H38.4496C37.8613 25.5388 37.4053 26.0143 37.4053 26.5937V40.1135C37.4053 40.7077 37.876 41.1683 38.4496 41.1683H41.7886C42.3769 41.1683 42.8329 40.6929 42.8329 40.1135V26.5937C42.8476 25.9994 42.3769 25.5388 41.7886 25.5388Z"
     fill="#F4992E"
     id="path7651" />
  <path
     d="M66.9408 4.2193H53.5556C52.9672 4.2193 52.5112 4.69472 52.5112 5.27414V8.64665C52.5112 9.24093 52.9819 9.70149 53.5556 9.70149H66.9408C67.5292 9.70149 67.9852 9.22607 67.9852 8.64665V5.27414C67.9999 4.69472 67.5292 4.2193 66.9408 4.2193Z"
     fill="#F4992E"
     id="path7653" />
  <path
     d="M14.4296 57.9716H1.04434C0.455981 57.9716 0 58.447 0 59.0264V62.3989C0 62.9932 0.47069 63.4538 1.04434 63.4538H14.4296C15.018 63.4538 15.4739 62.9783 15.4739 62.3989V59.0264C15.4592 58.447 14.9885 57.9716 14.4296 57.9716Z"
     fill="#F4992E"
     id="path7655" />
  <path
     d="M68.0001 5.27414C68.0001 4.67986 67.5294 4.2193 66.9557 4.2193H65.4995V9.70149H66.9557C67.5441 9.70149 68.0001 9.22607 68.0001 8.64665"
     fill="#F28F7D"
     id="path7657" />
  <path
     d="M34.8311 42.3718C34.4193 41.8073 33.5515 41.8073 33.1396 42.3718C32.2865 43.5455 24.8584 54.0345 24.8584 58.759C24.8584 63.84 28.9475 67.9703 33.978 67.9703C39.0085 67.9703 43.0976 63.84 43.0976 58.759C43.1123 54.0345 35.6843 43.5455 34.8311 42.3718Z"
     fill="#87CCD1"
     id="path7659"
     style="fill:#50cebf;fill-opacity:1" />
  <path
     d="M36.9933 65.5189C31.9628 65.5189 27.8736 61.3887 27.8736 56.3077C27.8736 52.7123 32.1981 45.7741 34.6251 42.1639C34.1544 41.837 33.4925 41.9262 33.1689 42.4016C32.3158 43.5753 24.8877 54.0643 24.8877 58.7888C24.8877 63.8698 28.9768 68 34.0073 68C36.8903 68 39.4497 66.6481 41.1265 64.5384C39.8615 65.1475 38.4642 65.5189 36.9933 65.5189Z"
     fill="#87CCD1"
     id="path7661"
     style="fill:#50cebf;fill-opacity:1" />
</svg>
