<?xml version="1.0" encoding="UTF-8" standalone="no"?>
<svg
   width="68"
   height="68"
   viewBox="0 0 68 68"
   fill="none"
   version="1.1"
   id="svg9106"
   sodipodi:docname="seguridad.svg"
   inkscape:version="1.2.1 (9c6d41e, 2022-07-14)"
   xmlns:inkscape="http://www.inkscape.org/namespaces/inkscape"
   xmlns:sodipodi="http://sodipodi.sourceforge.net/DTD/sodipodi-0.dtd"
   xmlns="http://www.w3.org/2000/svg"
   xmlns:svg="http://www.w3.org/2000/svg">
  <defs
     id="defs9110" />
  <sodipodi:namedview
     id="namedview9108"
     pagecolor="#ffffff"
     bordercolor="#000000"
     borderopacity="0.25"
     inkscape:showpageshadow="2"
     inkscape:pageopacity="0.0"
     inkscape:pagecheckerboard="0"
     inkscape:deskcolor="#d1d1d1"
     showgrid="false"
     inkscape:zoom="3.4705882"
     inkscape:cx="-17.864407"
     inkscape:cy="34"
     inkscape:window-width="1470"
     inkscape:window-height="836"
     inkscape:window-x="0"
     inkscape:window-y="37"
     inkscape:window-maximized="1"
     inkscape:current-layer="svg9106" />
  <path
     d="M61.3453 38.5003L56.4419 36.7413L59.1914 23.1541L64.0948 24.9131L61.3453 38.5003Z"
     fill="#CECCCB"
     id="path9068" />
  <path
     d="M59.4514 37.8534L56.4116 36.7818L59.1612 23.1946L62.2009 24.2662L59.4514 37.8534Z"
     fill="#B5B5B5"
     id="path9070" />
  <path
     d="M13.1367 52.5528C13.1367 51.6834 13.2436 50.8342 13.4574 50.0659H5.14771V57.9917H14.9697C13.8393 56.6168 13.1367 54.696 13.1367 52.5528Z"
     fill="#F4992E"
     id="path9072" />
  <path
     d="M13.213 53.6648C13.1672 53.3009 13.1519 52.937 13.1519 52.5528C13.1519 51.6834 13.2589 50.8342 13.4727 50.0659H5.14771V53.6648H13.213Z"
     fill="#EF7D50"
     id="path9074" />
  <path
     d="M23.4475 34.8408L19.2773 45.3142C21.5075 45.6579 23.3253 47.7809 23.921 50.5712L29.3437 36.9435L23.4475 34.8408Z"
     fill="#F4992E"
     id="path9076" />
  <path
     d="M26.1818 35.791L23.4475 34.8205L19.2773 45.294C20.2244 45.4355 21.1104 45.9207 21.8589 46.6486L26.1818 35.791Z"
     fill="#EF7D50"
     id="path9078" />
  <path
     d="M3.65078 39.9967H0V68H3.65078C4.85753 68 5.83514 66.706 5.83514 65.1087V42.8678C5.83514 41.3109 4.85753 39.9967 3.65078 39.9967Z"
     fill="#CECCCB"
     id="path9080" />
  <path
     d="M3.71188 39.9967C3.69661 39.9967 3.66606 39.9967 3.65078 39.9967H0V68H3.65078C3.66606 68 3.69661 68 3.71188 68V39.9967V39.9967Z"
     fill="#B5B5B5"
     id="path9082" />
  <path
     d="M51.7373 45.2737L16.4362 32.7581C14.7101 32.1313 13.6561 29.7657 14.1296 27.481L19.033 3.25856C19.5065 0.973807 21.2937 -0.421307 23.0198 0.205483L58.3209 12.7211C60.047 13.3479 61.0857 15.7135 60.6275 17.9982L55.7241 42.2408C55.2811 44.5054 53.4634 45.9005 51.7373 45.2737Z"
     fill="#CECCCB"
     id="path9084" />
  <path
     d="M23.0349 0.165078C21.3088 -0.461712 19.5064 0.933401 19.0481 3.21815L18.1163 7.84831L14.1448 27.4608C13.6712 29.7455 14.7252 32.1314 16.4513 32.7379L17.5206 33.1221C16.7874 32.192 16.4513 30.7565 16.7263 29.3411L22.0421 3.13727C22.3017 1.86347 23.0197 0.872743 23.9362 0.468362L23.0349 0.165078Z"
     fill="#B5B5B5"
     id="path9086" />
  <path
     d="M58.3971 12.7212L22.9891 0.144937C21.2783 -0.461634 19.5216 0.89304 19.0633 3.13735L17.49 10.9015L59.0692 25.6816L60.6425 17.9175C61.1008 15.6732 60.0926 13.3277 58.3971 12.7212Z"
     fill="#87CCD1"
     id="path9088"
     style="fill:#50cebf;fill-opacity:1" />
  <path
     d="M23.9055 0.488705L22.9737 0.165201C21.2629 -0.44137 19.5062 0.913304 19.048 3.15762L17.4746 10.9217L20.2547 11.9125L22.0266 3.17784C22.2863 1.8636 23.0195 0.893085 23.9055 0.488705Z"
     fill="#87CCD1"
     id="path9090" />
  <path
     d="M52.1036 34.3354C52.1036 35.9529 51.126 37.2671 49.8887 37.2671C48.6514 37.2671 47.6738 35.9731 47.6738 34.3354C47.6738 32.6976 48.6514 31.4036 49.8887 31.4036C51.126 31.4036 52.1036 32.7179 52.1036 34.3354Z"
     fill="#EF7D50"
     id="path9092" />
  <path
     d="M50.8206 33.567C50.9276 33.0413 51.1414 32.5561 51.4317 32.1921C51.172 31.8686 50.8512 31.6058 50.4846 31.4845C49.3084 31.0599 48.1016 31.9899 47.7656 33.567C47.4448 35.1239 48.1475 36.7212 49.3389 37.166C50.118 37.4491 50.9123 37.1256 51.4317 36.4583C50.8665 35.7507 50.6068 34.6589 50.8206 33.567Z"
     fill="#ED6A36"
     id="path9094" />
  <path
     d="M62.6896 41.8973L62.3382 41.7759C61.2843 41.412 60.658 39.9765 60.9482 38.6016L63.7894 24.5898C64.0644 23.1947 65.1489 22.3657 66.1876 22.7498L66.5389 22.8712C67.5929 23.2351 68.2192 24.6706 67.929 26.0455L65.0878 40.0573C64.8128 41.4524 63.7283 42.2814 62.6896 41.8973Z"
     fill="#9CD4D8"
     id="path9096" />
  <path
     d="M63.6365 39.4102L66.4777 25.3985C66.6457 24.6301 67.0429 24.0236 67.547 23.7203C67.2873 23.3159 66.9513 23.0126 66.5388 22.8711L66.1875 22.7498C65.1335 22.3858 64.0642 23.1946 63.7893 24.5897L60.9481 38.6015C60.6731 39.9966 61.2841 41.4119 62.3381 41.7759L62.6895 41.8972C63.163 42.0589 63.6212 41.9781 64.0337 41.7354C63.6212 41.1086 63.4532 40.2594 63.6365 39.4102Z"
     fill="#87CCD1"
     id="path9098" />
  <path
     d="M18.6511 45.0715C15.535 45.0715 12.9993 48.4278 12.9993 52.5525C12.9993 56.6772 15.535 60.0336 18.6511 60.0336C21.7673 60.0336 24.3029 56.6772 24.3029 52.5525C24.2877 48.4278 21.7673 45.0715 18.6511 45.0715ZM18.6511 55.2821C17.5055 55.2821 16.5737 54.0487 16.5737 52.5323C16.5737 51.0159 17.5055 49.7825 18.6511 49.7825C19.7967 49.7825 20.7285 51.0159 20.7285 52.5323C20.7133 54.0689 19.7967 55.2821 18.6511 55.2821Z"
     fill="#CECCCB"
     id="path9100" />
  <path
     d="M15.7334 52.5526C15.7334 49.0547 17.5512 46.1229 20.0105 45.3142C19.5675 45.1726 19.1245 45.0918 18.6357 45.0918C15.5196 45.0918 12.9839 48.4481 12.9839 52.5728C12.9839 56.6975 15.5196 60.0539 18.6357 60.0539C19.1093 60.0539 19.5675 59.973 20.0105 59.8314C17.5512 58.9822 15.7334 56.0303 15.7334 52.5526Z"
     fill="#B5B5B5"
     id="path9102" />
  <path
     d="M28.2747 10.0522C28.1983 10.0522 28.0913 10.032 28.015 10.0117L23.8143 8.51554C23.2644 8.31335 22.9436 7.58546 23.0811 6.85757C23.2338 6.12969 23.7837 5.70509 24.3336 5.88706L28.5343 7.38327C29.0842 7.58546 29.405 8.31334 29.2675 9.04123C29.1453 9.6478 28.7176 10.0522 28.2747 10.0522Z"
     fill="#87CCD1"
     id="path9104" />
</svg>
