<?xml version="1.0" encoding="UTF-8" standalone="no"?>
<svg
   width="52"
   height="61"
   viewBox="0 0 52 61"
   fill="none"
   version="1.1"
   id="svg10465"
   sodipodi:docname="tecnico.svg"
   inkscape:version="1.2.1 (9c6d41e, 2022-07-14)"
   xmlns:inkscape="http://www.inkscape.org/namespaces/inkscape"
   xmlns:sodipodi="http://sodipodi.sourceforge.net/DTD/sodipodi-0.dtd"
   xmlns="http://www.w3.org/2000/svg"
   xmlns:svg="http://www.w3.org/2000/svg">
  <defs
     id="defs10469" />
  <sodipodi:namedview
     id="namedview10467"
     pagecolor="#ffffff"
     bordercolor="#000000"
     borderopacity="0.25"
     inkscape:showpageshadow="2"
     inkscape:pageopacity="0.0"
     inkscape:pagecheckerboard="0"
     inkscape:deskcolor="#d1d1d1"
     showgrid="false"
     inkscape:zoom="3.8688525"
     inkscape:cx="-20.419492"
     inkscape:cy="30.5"
     inkscape:window-width="1470"
     inkscape:window-height="836"
     inkscape:window-x="0"
     inkscape:window-y="37"
     inkscape:window-maximized="1"
     inkscape:current-layer="svg10465" />
  <path
     d="M51.7971 8.10946C51.6673 7.40349 50.8767 7.12664 50.4401 7.63881L45.472 13.4665C45.1652 13.8264 44.6459 13.8264 44.3391 13.4665L40.5157 8.99538C40.2089 8.63547 40.2089 8.0264 40.5157 7.6665L45.4838 1.83881C45.9322 1.3128 45.6962 0.399192 45.0826 0.246924C42.156 -0.50057 39.135 0.537617 37.0227 3.01542C34.698 5.74239 33.8837 9.72903 34.8514 13.3696L1.93928 47.6159C0.771009 48.8064 0.0629683 50.5644 0.00396488 52.3916C-0.0550385 54.2188 0.546796 56.0183 1.65606 57.3057L3.15475 59.0637C4.0162 60.0742 5.14906 60.7248 6.35273 60.9324C7.5446 61.14 8.77187 60.8632 9.84573 60.1849C10.4358 59.7973 10.9668 59.3128 11.4152 58.7314L40.6101 20.1109C43.7137 21.2598 47.1123 20.2908 49.437 17.5639C51.5493 15.0861 52.4344 11.5424 51.7971 8.10946ZM8.06383 54.551C7.36759 55.3677 6.24652 55.3677 5.55028 54.551C4.85404 53.7343 4.85404 52.4193 5.55028 51.6026C5.8925 51.2011 6.35273 50.9935 6.81296 50.9935C7.27318 50.9935 7.73341 51.2011 8.07563 51.6026C8.76007 52.4193 8.76007 53.7343 8.06383 54.551Z"
     fill="#E5E2E2"
     id="path10437" />
  <path
     d="M28.5616 29.7037L26.6853 27.5028C26.3902 27.1567 25.9064 27.1429 25.5878 27.4474L7.08433 46.3839C6.5769 46.9099 6.83652 47.9066 7.48555 48.0312C8.40601 48.2111 9.23205 48.6956 9.88109 49.4708C10.5183 50.2183 10.9314 51.1596 11.0966 52.1978C11.2146 52.9591 12.0524 53.2359 12.5008 52.6546L28.5852 31.0049C28.8684 30.6173 28.8566 30.0498 28.5616 29.7037Z"
     fill="#F4992E"
     id="path10439" />
  <path
     d="M32.5029 34.2857L9.60962 7.43127C9.45621 7.25132 9.2556 7.15442 9.03139 7.15442C8.80717 7.15442 8.61836 7.26516 8.45315 7.43127L6.32903 9.92292C6.17562 10.1029 6.09302 10.3382 6.09302 10.6012C6.09302 10.8642 6.18742 11.0857 6.32903 11.2795L29.2223 38.1339C29.5292 38.4938 30.0484 38.4938 30.3552 38.1339L32.4793 35.6423C32.8098 35.2547 32.8098 34.6456 32.5029 34.2857Z"
     fill="#CECCCB"
     id="path10441" />
  <path
     d="M9.60962 7.43127C9.45621 7.25132 9.2556 7.15442 9.03139 7.15442C8.80717 7.15442 8.61836 7.26516 8.45315 7.43127L6.32903 9.92292C6.17562 10.1029 6.09302 10.3382 6.09302 10.6012C6.09302 10.8642 6.18742 11.0857 6.32903 11.2795L10.0698 15.6675L13.3386 11.8332L9.60962 7.43127Z"
     fill="#B5B5B5"
     id="path10443" />
  <path
     d="M3.72102 11.2794L8.44129 13.6049L11.6393 9.85363L9.65676 4.31664C9.58596 4.109 9.44435 3.92905 9.29094 3.84599L3.03658 0.108523C2.72976 -0.0852714 2.34034 -0.0160588 2.10433 0.288476L0.275222 2.43406C0.0156068 2.72475 -0.0433967 3.16771 0.121813 3.52762L3.3198 10.8503C3.3906 11.0441 3.53221 11.1964 3.72102 11.2794Z"
     fill="#CECCCB"
     id="path10445" />
  <path
     d="M50.747 48.1973L37.6364 32.8044C37.5066 32.6521 37.3296 32.5414 37.129 32.5276L33.164 32.1677C32.928 32.1538 32.6919 32.2507 32.5267 32.4445L27.6649 38.1476C27.4996 38.3414 27.417 38.6183 27.4288 38.8951L27.7357 43.5462C27.7475 43.7677 27.8419 43.9753 27.9717 44.1414L41.0822 59.5204C41.8493 60.4202 42.8523 60.9047 43.938 60.9047C45.0119 60.9047 46.0267 60.4202 46.7938 59.5204L50.7588 54.8693C51.5258 53.9696 51.9389 52.793 51.9389 51.5195C51.9389 50.2736 51.514 49.097 50.747 48.1973Z"
     fill="#87CCD1"
     id="path10447"
     style="fill:#50cebf;fill-opacity:1" />
  <path
     d="M27.7474 43.5464C27.7592 43.7678 27.8536 43.9755 27.9834 44.1416L41.094 59.5206C41.861 60.4204 42.8641 60.9048 43.9497 60.9048C44.5752 60.9048 45.177 60.7249 45.7198 60.4204L27.4524 38.9922L27.7474 43.5464Z"
     fill="#87CCD1"
     id="path10449" />
  <path
     d="M37.6364 32.8044C37.5066 32.6521 37.3296 32.5414 37.129 32.5276L33.164 32.1677C32.928 32.1538 32.6919 32.2507 32.5267 32.4445L27.6649 38.1476C27.4996 38.3414 27.417 38.6183 27.4288 38.8951L27.7357 43.5462C27.7475 43.7677 27.8419 43.9753 27.9717 44.1414L28.5027 44.7643L38.1675 33.4273L37.6364 32.8044Z"
     fill="#EF7D50"
     id="path10451" />
  <path
     d="M27.4524 38.9922L27.7474 43.5325C27.7592 43.754 27.8536 43.9616 27.9834 44.1277L28.5145 44.7507L30.438 42.4943L27.4524 38.9922Z"
     fill="#EF7D50"
     id="path10453" />
  <path
     d="M47.4546 50.7443L37.5657 39.1443C37.1054 38.6044 36.5036 38.3137 35.8546 38.3137C35.2055 38.3137 34.5919 38.6044 34.1435 39.1443L33.3882 40.0302C32.928 40.57 32.6802 41.276 32.6802 42.0374C32.6802 42.7987 32.928 43.5185 33.3882 44.0445L43.2772 55.6445C43.7374 56.1844 44.3392 56.4751 44.9883 56.4751C45.6373 56.4751 46.251 56.1844 46.6994 55.6445L47.4546 54.7586C47.9149 54.2187 48.1627 53.5128 48.1627 52.7514C48.1627 51.9901 47.9149 51.2841 47.4546 50.7443Z"
     fill="#EF7D50"
     id="path10455" />
  <path
     d="M36.9047 44.2384C36.6923 44.2384 36.4917 44.1553 36.3265 43.9615L36.0197 43.6016C35.7128 43.2417 35.7128 42.6326 36.0197 42.2727C36.3265 41.9128 36.8457 41.9128 37.1525 42.2727L37.4593 42.6326C37.7662 42.9925 37.7662 43.6016 37.4593 43.9615C37.3295 44.1553 37.1171 44.2384 36.9047 44.2384Z"
     fill="#F4992E"
     id="path10457" />
  <path
     d="M39.3473 47.1036C39.1349 47.1036 38.9343 47.0206 38.7691 46.8268L38.4623 46.4669C38.1555 46.107 38.1555 45.4979 38.4623 45.138C38.7691 44.7781 39.2883 44.7781 39.5952 45.138L39.902 45.4979C40.2088 45.8578 40.2088 46.4669 39.902 46.8268C39.7604 46.9929 39.5598 47.1036 39.3473 47.1036Z"
     fill="#F4992E"
     id="path10459" />
  <path
     d="M41.7902 49.9415C41.5778 49.9415 41.3772 49.8584 41.212 49.6646L40.9052 49.3047C40.5983 48.9448 40.5983 48.3357 40.9052 47.9758C41.212 47.6159 41.7312 47.6159 42.038 47.9758L42.3448 48.3357C42.6517 48.6956 42.6517 49.3047 42.3448 49.6646C42.2032 49.8584 41.9908 49.9415 41.7902 49.9415Z"
     fill="#F4992E"
     id="path10461" />
  <path
     d="M44.2092 52.8069C43.9967 52.8069 43.7961 52.7239 43.6309 52.5301L43.3241 52.1702C43.0173 51.8103 43.0173 51.2012 43.3241 50.8413C43.6309 50.4814 44.1502 50.4814 44.457 50.8413L44.7638 51.2012C45.0706 51.5611 45.0706 52.1702 44.7638 52.5301C44.634 52.7239 44.4216 52.8069 44.2092 52.8069Z"
     fill="#F4992E"
     id="path10463" />
</svg>
